<svg width="805" height="98" viewBox="0 0 805 98" fill="none" xmlns="http://www.w3.org/2000/svg">
<path d="M24.4478 22.4003V85.1204H40.4478V95.3604H0.511805V85.1204H14.0798V16.2563L13.6958 16.0004H-0.000195265V5.76035H25.7278L76.9278 79.4884V16.0004H61.4398V5.76035H100.224V16.0004H87.2958V97.6644H76.6718L24.4478 22.4003Z" fill="#0077FF"/>
<path d="M108.807 60.9283H119.175V65.7924C119.175 69.547 120.583 73.0884 123.399 76.4164C126.215 79.659 130.012 82.3044 134.791 84.3524C139.569 86.4004 144.732 87.4244 150.279 87.4244C154.631 87.4244 158.428 86.8697 161.671 85.7604C164.999 84.5657 167.559 82.9017 169.351 80.7684C171.228 78.5497 172.167 75.9897 172.167 73.0884C172.167 70.0164 171.015 67.4564 168.711 65.4083C166.492 63.3603 163.591 61.6964 160.007 60.4164C156.508 59.051 151.473 57.4724 144.903 55.6804C144.647 55.6804 144.348 55.6377 144.007 55.5523C143.751 55.3817 143.495 55.2537 143.239 55.1684C143.153 55.1684 143.068 55.1684 142.983 55.1684C142.897 55.083 142.812 55.0403 142.727 55.0403C136.412 53.3337 131.079 51.5844 126.727 49.7924C122.375 47.915 118.62 45.1843 115.463 41.6003C112.391 38.0163 110.855 33.451 110.855 27.9044C110.855 22.8697 112.177 18.5603 114.823 14.9763C117.468 11.307 121.095 8.53368 125.703 6.65635C130.396 4.77901 135.687 3.84035 141.575 3.84035C145.329 3.84035 148.913 4.26701 152.327 5.12035C155.825 5.97368 159.068 7.21101 162.055 8.83234C163.676 9.77101 165.212 10.8377 166.663 12.0323C168.113 13.227 169.479 14.507 170.759 15.8723V2.04835H180.999V37.3764H170.887V33.1523C170.887 30.0803 169.521 27.0083 166.791 23.9363C164.145 20.8643 160.561 18.347 156.039 16.3843C151.516 14.3363 146.695 13.3123 141.575 13.3123C135.431 13.3123 130.524 14.5923 126.855 17.1524C123.271 19.7123 121.479 23.211 121.479 27.6483C121.479 31.0617 122.588 33.8777 124.807 36.0963C127.025 38.2297 129.841 39.979 133.255 41.3443C136.753 42.7097 141.617 44.2457 147.847 45.9524C148.188 46.0377 148.529 46.123 148.871 46.2084C149.297 46.2937 149.681 46.379 150.023 46.4643L151.431 46.8484C158.172 48.6404 163.676 50.4324 167.943 52.2243C172.209 54.0163 175.793 56.5763 178.695 59.9044C181.681 63.147 183.175 67.4137 183.175 72.7044C183.175 77.739 181.767 82.1337 178.951 85.8884C176.135 89.5577 172.295 92.3737 167.431 94.3364C162.567 96.299 157.063 97.2804 150.919 97.2804C146.567 97.2804 142.428 96.7684 138.503 95.7444C134.663 94.8057 131.207 93.483 128.135 91.7764C126.343 90.667 124.679 89.4724 123.143 88.1924C121.607 86.9124 120.241 85.5044 119.047 83.9684V97.0244H108.807V60.9283Z" fill="#FF2828"/>
<path d="M193.533 40.7043H184.701V31.3604H215.421V40.7043H203.645L218.365 86.9124L234.365 43.6483L233.085 40.7043H223.101V31.3604H255.741V40.7043H243.197L260.349 87.0404L275.069 40.7043H262.909V31.3604H293.757V40.7043H284.925L267.517 95.3604H254.077L239.229 55.0403L223.997 95.3604H210.813L193.533 40.7043ZM292.11 86.0164H305.038V40.7043H292.11V31.3604H314.382V86.0164H327.182V95.3604H292.11V86.0164ZM299.662 0.000343323H316.046L308.494 22.2723H307.086L299.662 0.000343323ZM365.021 96.1284C358.023 96.1284 352.69 94.2937 349.021 90.6244C345.437 86.8697 343.645 81.4937 343.645 74.4964V40.7043H328.925V31.3604H339.805C341.085 31.3604 342.066 31.019 342.749 30.3363C343.431 29.6537 343.773 28.6723 343.773 27.3923V16.0004H352.861V31.3604H381.661V40.7043H352.861V74.3684C352.861 78.5497 354.013 81.707 356.317 83.8404C358.706 85.8884 362.077 86.9124 366.429 86.9124C369.33 86.9124 372.061 86.571 374.621 85.8884C377.181 85.1204 379.527 84.2244 381.661 83.2004V92.6724C379.271 93.6964 376.626 94.5497 373.725 95.2324C370.909 95.8297 368.007 96.1284 365.021 96.1284ZM439.382 88.3204C437.675 90.3684 435.328 92.1604 432.342 93.6964C430.464 94.635 428.416 95.3604 426.198 95.8724C423.979 96.3844 421.632 96.6404 419.158 96.6404C413.27 96.6404 407.936 95.1897 403.158 92.2884C398.379 89.387 394.624 85.419 391.894 80.3844C389.163 75.2644 387.798 69.5897 387.798 63.3604C387.798 57.131 389.163 51.499 391.894 46.4643C394.624 41.3443 398.379 37.3337 403.158 34.4324C407.936 31.531 413.27 30.0803 419.158 30.0803C423.424 30.0803 427.392 30.891 431.062 32.5123C433.792 33.7923 436.139 35.4137 438.102 37.3764V26.7523H446.806V55.1684H437.59V50.8163C437.419 48.7683 436.438 46.8484 434.646 45.0564C432.939 43.2643 430.763 41.8563 428.118 40.8323C425.558 39.723 422.827 39.1684 419.926 39.1684C415.744 39.1684 411.947 40.235 408.534 42.3683C405.206 44.5017 402.56 47.403 400.598 51.0723C398.635 54.7417 397.654 58.8377 397.654 63.3604C397.654 67.883 398.635 71.979 400.598 75.6483C402.56 79.3177 405.206 82.219 408.534 84.3524C411.947 86.4004 415.744 87.4244 419.926 87.4244C423.168 87.4244 426.198 86.8697 429.014 85.7604C431.83 84.5657 434.134 82.987 435.926 81.0244C437.718 78.9764 438.699 76.7577 438.87 74.3684V69.6324H448.086V96.7684H439.382V88.3204ZM458.988 86.0164H470.252V15.1043H458.86V5.76035H479.596V43.0084C481.644 38.9977 484.502 35.8403 488.172 33.5364C491.926 31.2323 496.108 30.0803 500.716 30.0803C506.348 30.0803 511.169 31.3177 515.18 33.7923C519.276 36.267 522.39 39.8083 524.524 44.4163C526.742 49.0243 527.852 54.4003 527.852 60.5443V86.0164H537.964V95.3604H506.988V86.0164H518.508V61.6964C518.508 54.8697 516.716 49.451 513.132 45.4403C509.633 41.4297 504.897 39.4244 498.924 39.4244C495.34 39.4244 492.054 40.4057 489.068 42.3683C486.166 44.331 483.862 47.019 482.156 50.4324C480.449 53.8457 479.596 57.6003 479.596 61.6964V86.0164H491.884V95.3604H458.988V86.0164ZM543.762 85.1204H557.33V16.0004H543.762V5.76035H583.442V16.0004H567.954V45.6964H617.106V16.0004H601.618V5.76035H641.298V16.0004H627.73V85.1204H641.298V95.3604H601.618V85.1204H617.106V55.4244H567.954V85.1204H583.442V95.3604H543.762V85.1204ZM684.346 96.6404C678.884 96.6404 674.106 95.403 670.01 92.9284C665.914 90.4537 662.756 86.9124 660.538 82.3044C658.319 77.6964 657.21 72.2777 657.21 66.0483V40.7043H647.226V31.3604H666.682V64.8964C666.682 71.8084 668.431 77.2697 671.93 81.2804C675.514 85.291 680.292 87.2964 686.266 87.2964C689.85 87.2964 693.092 86.315 695.994 84.3524C698.98 82.3897 701.327 79.7017 703.034 76.2884C704.74 72.875 705.594 69.0777 705.594 64.8964V40.7043H692.154V31.3604H726.074V40.7043H714.938V86.0164H726.074V95.3604H706.362V83.0724C704.228 87.2537 701.199 90.5817 697.274 93.0564C693.434 95.4457 689.124 96.6404 684.346 96.6404ZM774.145 96.6404C768.939 96.6404 764.289 95.531 760.193 93.3124C756.097 91.0084 752.982 87.8937 750.849 83.9684V95.3604H741.377V15.1043H729.985V5.76035H750.721V42.8803C752.939 38.955 756.097 35.8403 760.193 33.5364C764.289 31.2323 768.939 30.0803 774.145 30.0803C779.862 30.0803 784.982 31.531 789.505 34.4324C794.113 37.3337 797.739 41.3443 800.385 46.4643C803.03 51.499 804.353 57.131 804.353 63.3604C804.353 69.5897 803.03 75.2644 800.385 80.3844C797.825 85.419 794.241 89.387 789.633 92.2884C785.11 95.1897 779.947 96.6404 774.145 96.6404ZM772.097 87.2964C776.278 87.2964 780.033 86.2724 783.361 84.2244C786.774 82.091 789.462 79.1897 791.425 75.5204C793.387 71.851 794.369 67.7977 794.369 63.3604C794.369 58.923 793.387 54.8697 791.425 51.2003C789.462 47.531 786.774 44.6723 783.361 42.6243C780.033 40.491 776.278 39.4244 772.097 39.4244C768.086 39.4244 764.417 40.491 761.089 42.6243C757.761 44.6723 755.115 47.531 753.153 51.2003C751.275 54.8697 750.337 58.923 750.337 63.3604C750.337 67.7977 751.275 71.851 753.153 75.5204C755.115 79.1897 757.761 82.091 761.089 84.2244C764.417 86.2724 768.086 87.2964 772.097 87.2964Z" fill="white"/>
</svg>
