<svg width="140" height="140" viewBox="0 0 140 140" fill="none" xmlns="http://www.w3.org/2000/svg">
<rect width="140" height="140" rx="70" fill="white"/>
<path d="M47.911 61.576L47.399 61.64L43.559 51.976C43.175 50.9947 42.7483 50.3547 42.279 50.056C41.8523 49.7573 41.127 49.608 40.103 49.608H27.111V69.256H36.391C37.415 69.256 38.1403 69.0853 38.567 68.744C38.9937 68.4027 39.2923 67.7413 39.463 66.76L40.551 61.576H41.319V77.96H40.551L39.463 72.776C39.2923 71.7947 38.9937 71.1333 38.567 70.792C38.1403 70.4507 37.415 70.28 36.391 70.28H27.111V91.976L33.383 92.488V93H16.935V92.488L22.183 91.976V49.864L16.935 49.352V48.84H46.887L47.911 61.576Z" fill="black"/>
<path d="M69.9085 93.64C67.4765 93.64 65.2152 93.32 63.1245 92.68C61.0765 92.04 59.1992 91.08 57.4925 89.8C55.8285 88.4773 54.3352 86.856 53.0125 84.936L57.7485 79.496C59.8392 82.4827 61.8445 84.552 63.7645 85.704C65.6845 86.856 67.9672 87.432 70.6125 87.432C72.2338 87.432 73.7058 87.176 75.0285 86.664C76.3512 86.152 77.3965 85.448 78.1645 84.552C78.9325 83.656 79.3165 82.632 79.3165 81.48C79.3165 80.712 79.1885 79.9867 78.9325 79.304C78.6765 78.6213 78.2712 78.0027 77.7165 77.448C77.2045 76.8933 76.5218 76.3813 75.6685 75.912C74.8578 75.4427 73.8978 75.0373 72.7885 74.696C71.6792 74.312 70.3992 73.992 68.9485 73.736C66.6445 73.2667 64.6392 72.648 62.9325 71.88C61.2258 71.112 59.7965 70.152 58.6445 69C57.4925 67.848 56.6392 66.5467 56.0845 65.096C55.5298 63.6027 55.2525 61.9387 55.2525 60.104C55.2525 58.312 55.6365 56.648 56.4045 55.112C57.2152 53.576 58.3032 52.2533 59.6685 51.144C61.0765 49.992 62.7192 49.1173 64.5965 48.52C66.4738 47.88 68.5005 47.56 70.6765 47.56C72.9805 47.56 75.0925 47.8587 77.0125 48.456C78.9325 49.0533 80.6392 49.9493 82.1325 51.144C83.6258 52.296 84.8632 53.7253 85.8445 55.432L80.9805 60.232C80.1272 58.824 79.1672 57.6507 78.1005 56.712C77.0338 55.7307 75.8605 55.0053 74.5805 54.536C73.3005 54.024 71.9352 53.768 70.4845 53.768C68.8205 53.768 67.3698 54.024 66.1325 54.536C64.8952 55.048 63.9138 55.7733 63.1885 56.712C62.5058 57.608 62.1645 58.6747 62.1645 59.912C62.1645 60.808 62.3352 61.64 62.6765 62.408C63.0178 63.1333 63.5298 63.7947 64.2125 64.392C64.9378 64.9467 65.8978 65.4587 67.0925 65.928C68.2872 66.3547 69.7165 66.7387 71.3805 67.08C73.7272 67.592 75.8178 68.2533 77.6525 69.064C79.4872 69.832 81.0445 70.7493 82.3245 71.816C83.6045 72.8827 84.5645 74.0773 85.2045 75.4C85.8872 76.7227 86.2285 78.152 86.2285 79.688C86.2285 82.5467 85.5672 85.0213 84.2445 87.112C82.9218 89.2027 81.0445 90.824 78.6125 91.976C76.1805 93.0853 73.2792 93.64 69.9085 93.64Z" fill="#009DFF"/>
<path d="M104.534 93V54.856H91.99V48.2H124.374V54.856H111.446V93H104.534Z" fill="#FF0000"/>
</svg>
